<?xml version="1.0" encoding="utf-8"?>
<!-- Generator: Adobe Illustrator 25.4.1, SVG Export Plug-In . SVG Version: 6.00 Build 0)  -->
<svg version="1.1" id="레이어_1" xmlns="http://www.w3.org/2000/svg" xmlns:xlink="http://www.w3.org/1999/xlink" x="0px"
	 y="0px" viewBox="0 0 16.26 24.8" style="enable-background:new 0 0 16.26 24.8;" xml:space="preserve">
<style type="text/css">
	.st0{fill:none;stroke:#231815;stroke-width:0.3098;stroke-miterlimit:10;}
</style>
<path class="st0" d="M10.72,7.68c0.13-0.1,0.26-0.21,0.37-0.33c0.76-0.76,1.23-1.82,1.23-2.98c0-1.16-0.47-2.22-1.23-2.98
	c-0.76-0.76-1.8-1.24-2.96-1.24c-1.16,0-2.2,0.47-2.96,1.24C4.41,2.15,3.94,3.21,3.94,4.37c0,1.17,0.47,2.22,1.23,2.98
	c0.12,0.12,0.24,0.23,0.37,0.33H0.15v2.59v2.58h3.87l-2.5,11.79h5.75l0.65-5.63l0.96,5.62h5.66l-2.16-11.79h3.73v-2.58V7.68H10.72z"
	/>
</svg>
