<svg xmlns="http://www.w3.org/2000/svg" version="1.1" xmlns:xlink="http://www.w3.org/1999/xlink" xmlns:svgjs="http://svgjs.com/svgjs" width="512" height="512"><svg id="SvgjsSvg1000" enable-background="new 0 0 512 512" height="512" viewBox="0 0 512 512" width="512" xmlns="http://www.w3.org/2000/svg"><g><g><path clip-rule="evenodd" d="m268.052 254.74c-1.339 6.222-1.494 64.963-14.66 109.199-6.14 20.624-15.113 38.086-28.35 45.616-13.598 7.737-28.443 13.609-43.834 17.503-3.554.896-7.129 1.689-10.735 2.38-67.023 12.743-141.073-11.703-166.704-83.867-8.489-23.921-1.689-30.452 10.93-27.114l23.035 6.088c-34.624-22.437-38.024-62.222-27.351-60.626l30.164 4.492c-23.828-3.554-41.3-54.816-26.785-53.508l34.264 4.162c-28.618-17.266-37.787-54.898-22.942-53.806l28.701 2.102c-23.292-19.336-30.71-55.341-16.38-55.846l30.102 7.067c-24.24-9.993-33.553-66.045-7.953-58.926l15.278 4.265c-6.47-24.426 3.018-47.45 15.525-55.609 14.608 2.977 31.863 20.954 34.851 46.028l12.63-9.55c21.191-16.05 33.11 39.497 14.247 57.711l25.394-17.657c13.536-4.78 19.831 31.431 5.264 57.978l25.95-12.506c13.392-6.47 18.687 31.925-1.597 58.504l30.339-16.462c13.032-6.531 15.607 47.543-5.264 59.596l26.393-15.247c6.716-3.895 14.525 14.762 9.488 38.033z" fill="#a7e9a6" fill-rule="evenodd"></path></g><g><path clip-rule="evenodd" d="m268.052 254.74c-1.339 6.222-1.494 64.963-14.66 109.199-1.35 1.463-2.771 2.885-4.265 4.265-8.53 7.86-13.846 35.51-24.096 41.331-13.598 7.737-28.443 13.619-43.824 17.523-3.554.896-7.129 1.689-10.735 2.38l-11.032-57.968-18.358-96.384-15.514-81.683-10.848-56.969-24.364-128.123c14.608 2.977 31.863 20.954 34.851 46.028l12.63-9.55c21.191-16.05 33.11 39.497 14.247 57.711l25.394-17.657c13.536-4.78 19.831 31.431 5.264 57.978l25.95-12.506c13.392-6.47 18.687 31.925-1.597 58.504l30.339-16.462c13.032-6.531 15.607 47.543-5.264 59.596l26.393-15.247c6.717-3.894 14.526 14.763 9.489 38.034z" fill="#7fdbae" fill-rule="evenodd"></path></g><g><path d="m176.227 467.562c-3.637 0-6.877-2.579-7.581-6.284l-61.52-323.398c-.798-4.192 1.954-8.237 6.146-9.034 4.188-.799 8.236 1.954 9.034 6.146l61.521 323.398c.798 4.192-1.954 8.237-6.146 9.034-.489.093-.975.138-1.454.138z" fill="#00a887"></path></g><g><path d="m124.796 201.901c-1.964 0-3.928-.744-5.435-2.234-3.033-3.001-3.059-7.893-.057-10.927l25.158-25.425c3.001-3.033 7.893-3.058 10.927-.057 3.033 3.001 3.059 7.893.057 10.927l-25.158 25.425c-1.511 1.526-3.502 2.291-5.492 2.291z" fill="#00a887"></path></g><g><path d="m124.792 201.903c-1.04 0-2.097-.211-3.111-.657l-32.755-14.428c-3.905-1.72-5.677-6.28-3.957-10.186 1.72-3.905 6.278-5.675 10.186-3.956l32.755 14.428c3.905 1.72 5.677 6.28 3.957 10.186-1.274 2.891-4.106 4.613-7.075 4.613z" fill="#00a887"></path></g><g><path d="m138.572 285.359c-1.963 0-3.927-.743-5.434-2.234-3.033-3.001-3.059-7.893-.058-10.927l41.181-41.626c2.999-3.033 7.892-3.06 10.927-.058 3.033 3.001 3.059 7.893.058 10.927l-41.181 41.626c-1.51 1.527-3.501 2.292-5.493 2.292z" fill="#00a887"></path></g><g><path d="m138.569 285.361c-1.04 0-2.096-.211-3.109-.657l-53.598-23.591c-3.905-1.719-5.678-6.279-3.959-10.184 1.718-3.905 6.278-5.679 10.184-3.959l53.598 23.591c3.905 1.719 5.678 6.279 3.959 10.184-1.273 2.893-4.105 4.616-7.075 4.616z" fill="#00a887"></path></g><g><path d="m159.443 379.194c-1.964 0-3.929-.744-5.435-2.235-3.033-3.002-3.057-7.894-.055-10.927l58.091-58.684c3.002-3.033 16.713-16.749 19.746-13.747s-5.763 21.586-8.765 24.619l-58.091 58.684c-1.51 1.526-3.5 2.29-5.491 2.29z" fill="#00a887"></path></g><g><path d="m159.44 379.196c-1.039 0-2.096-.211-3.108-.656l-75.592-33.259c-3.906-1.718-5.679-6.278-3.96-10.184 1.718-3.905 6.279-5.679 10.184-3.96l75.592 33.259c3.906 1.718 5.679 6.278 3.96 10.184-1.273 2.893-4.105 4.616-7.076 4.616z" fill="#00a887"></path></g><g><path clip-rule="evenodd" d="m472.46 276.003 26.125 7.335c13.485 3.812-6.737 34.233-37.632 40.352l31.699 7.304c13.3 3.523-18.626 43.34-40.919 38.817l28.175 5.707c9.993 2.009-5.8 36.19-43.7 44.967l22.386 1.978c12.239 1.092 16.194 9.076.999 27.557-45.874 55.753-119.398 53.631-174.687 20.84-25.167-14.938-46.564-36.221-59.864-61.306 0-.01-.01-.01-.01-.021-15.916-30.03-20.243-65.489-5.573-101.988 8.932-22.2 17.822-22.551 24.652-12.321l12.475 18.677c-7.901-28.186 2.854-52.292 11.466-59.163 2.823-2.266 5.419-2.658 7.046-.731l9.673 11.497 7.788 9.261.021.021 1.02 1.216c-.391-.464-.762-.948-1.092-1.452v-.01c-.01-.01-.021-.031-.031-.041-1.133-1.659-1.988-3.523-2.627-5.542 0-.01 0-.01-.01-.021-6.48-20.418 9.849-56.289 18.214-47.471l21.613 24.323c-9.457-30.061 7.572-62.377 17.358-52.354l18.976 19.429c-4.378-28.206 12.826-58.308 23.292-49.706l16.854 23.776c-10.879-22.18 17.503-67.59 31.132-46.564l8.128 12.537c10.704-21.294 31.781-31.668 45.699-29.628 8.458 11.239 9.436 34.707-4.1 54.28l14.896 1.123c24.982 1.896-1.267 48.604-25.961 49.665l28.948 3.4c12.559 5.059-5.593 34.594-32.429 44.257z" fill="#a7e9a6" fill-rule="evenodd"></path></g><g><path clip-rule="evenodd" d="m451.733 369.813c22.29 4.523 54.218-35.299 40.915-38.817l-31.691-7.302c30.893-6.12 51.114-36.541 37.634-40.354l-26.134-7.332c26.843-9.667 44.995-39.202 32.431-44.257l-28.942-3.4c24.685-1.064 50.937-47.775 25.956-49.667l-14.9-1.123c13.54-19.571 12.564-43.045 4.109-54.279l-62.762 105.75-27.878 47.006-39.999 67.435-47.182 79.556-28.38 47.834c25.572 15.166 55.017 23.769 83.841 23.119 33.524-.739 66.162-13.984 90.847-43.961 2.927-3.548 5.114-6.741 6.711-9.52 6.652-11.766 2.188-17.147-7.716-18.034l-22.379-1.981c37.9-8.78 53.686-42.956 43.694-44.966z" fill="#7fdbae" fill-rule="evenodd"></path></g><g><path d="m270.002 503.689c-1.34 0-2.698-.349-3.934-1.082-3.67-2.177-4.881-6.917-2.704-10.587l158.339-266.931c2.177-3.67 6.916-4.881 10.587-2.704 3.67 2.177 4.881 6.917 2.704 10.587l-158.339 266.931c-1.444 2.433-4.015 3.786-6.653 3.786z" fill="#00a887"></path></g><g><path d="m399.458 283.822c-4.033 0-7.429-3.129-7.702-7.212-.284-4.258 2.937-7.94 7.194-8.224l33.643-2.247c4.274-.276 7.94 2.937 8.224 7.194.284 4.258-2.937 7.94-7.194 8.224l-33.643 2.247c-.175.012-.349.018-.522.018z" fill="#00a887"></path></g><g><path d="m399.471 283.824c-2.918 0-5.711-1.661-7.017-4.483l-14.16-30.599c-1.792-3.873-.106-8.465 3.767-10.257 3.873-1.791 8.464-.105 10.257 3.767l14.16 30.599c1.792 3.873.106 8.465-3.767 10.257-1.051.485-2.154.716-3.24.716z" fill="#00a887"></path></g><g><path d="m357.094 351.435c-4.03 0-7.425-3.125-7.701-7.205-.288-4.258 2.93-7.942 7.187-8.23l55.076-3.725c4.278-.294 7.942 2.931 8.23 7.187.288 4.258-2.93 7.942-7.187 8.23l-55.076 3.725c-.177.012-.354.018-.529.018z" fill="#00a887"></path></g><g><path d="m357.107 351.436c-2.921 0-5.715-1.664-7.02-4.49l-23.148-50.14c-1.788-3.874-.098-8.465 3.777-10.254 3.874-1.789 8.465-.098 10.254 3.777l23.148 50.14c1.788 3.874.098 8.465-3.777 10.253-1.049.485-2.151.714-3.234.714z" fill="#00a887"></path></g><g><path d="m313.282 430.754c-4.031 0-7.427-3.127-7.701-7.208-.287-4.258 2.932-7.941 7.19-8.228l77.691-5.233c4.258-.289 7.941 2.932 8.228 7.19s-2.932 7.941-7.19 8.228l-77.691 5.233c-.177.012-.352.018-.527.018z" fill="#00a887"></path></g><g><path d="m313.295 430.756c-2.92 0-5.713-1.663-7.019-4.487l-32.667-70.687c-1.79-3.874-.101-8.465 3.772-10.255 3.875-1.79 8.465-.101 10.255 3.772l32.667 70.687c1.79 3.874.101 8.465-3.772 10.255-1.049.485-2.152.715-3.236.715z" fill="#00a887"></path></g></g></svg><style>@media (prefers-color-scheme: light) { :root { filter: contrast(1) brightness(0.9); } }
</style></svg>